<?xml version="1.0" standalone="no"?>
<!DOCTYPE svg PUBLIC "-//W3C//DTD SVG 20010904//EN"
 "http://www.w3.org/TR/2001/REC-SVG-20010904/DTD/svg10.dtd">
<svg version="1.0" xmlns="http://www.w3.org/2000/svg"
 width="300.000000pt" height="242.000000pt" viewBox="0 0 300.000000 242.000000"
 preserveAspectRatio="xMidYMid meet">
<metadata>
Nicky Vido 
</metadata>
<g transform="translate(0.000000,242.000000) scale(0.100000,-0.100000)"
fill="#000000" stroke="none">
<path d="M2077 2308 c-51 -30 -81 -93 -74 -155 9 -80 66 -134 149 -141 58 -4
102 17 140 69 39 52 33 143 -12 198 -17 19 -23 21 -35 11 -13 -11 -18 -11 -28
0 -9 10 -9 14 1 17 27 10 -2 23 -51 23 -35 0 -64 -8 -90 -22z m114 -20 c5 -9
22 -19 38 -23 61 -13 83 -78 52 -152 -27 -67 -134 -97 -197 -57 -55 37 -75
136 -38 192 35 53 124 77 145 40z"/>
<path d="M1038 2309 c-33 -19 -13 -79 26 -79 10 0 36 32 36 45 0 14 -27 45
-38 45 -4 0 -15 -5 -24 -11z"/>
<path d="M1813 2263 c-18 -7 -16 -33 1 -33 25 0 46 12 46 26 0 14 -23 17 -47
7z"/>
<path d="M795 2230 c-28 -11 -44 -31 -51 -67 -9 -43 35 -93 82 -93 79 0 114
93 53 144 -32 27 -50 30 -84 16z m56 -40 c38 -21 18 -80 -28 -80 -53 0 -49 76
5 89 2 1 12 -4 23 -9z"/>
<path d="M1260 2191 c-115 -26 -245 -80 -335 -141 -40 -27 -76 -54 -79 -58 -5
-9 64 -35 72 -27 2 2 -7 7 -22 11 -14 3 -26 9 -26 13 1 5 56 44 108 76 10 6
19 12 22 15 3 3 25 14 50 25 25 10 64 27 88 37 114 50 370 71 502 42 134 -30
296 -109 421 -206 50 -38 93 -68 95 -65 6 6 -106 97 -176 144 -66 44 -166 89
-267 119 -121 36 -328 43 -453 15z"/>
<path d="M612 2057 c-15 -17 1 -42 23 -33 18 6 17 37 -1 43 -6 2 -16 -2 -22
-10z"/>
<path d="M1850 2033 c-35 -13 -70 -57 -70 -88 0 -37 15 -59 54 -79 54 -28 120
16 120 81 0 29 -7 42 -34 65 -35 28 -43 31 -70 21z m62 -40 c28 -32 30 -58 7
-86 -37 -48 -119 -24 -119 35 0 53 79 89 112 51z"/>
<path d="M595 1954 c-27 -14 -58 -33 -68 -42 -30 -27 -84 -105 -91 -132 -4
-14 6 -2 22 25 38 64 93 116 157 148 28 15 46 26 40 26 -5 0 -32 -11 -60 -25z"/>
<path d="M695 1958 c-6 -13 -32 -35 -60 -50 -70 -37 -113 -82 -142 -144 -28
-61 -43 -164 -24 -164 6 0 14 14 18 31 3 17 12 33 19 36 8 3 14 12 14 20 0 8
-4 12 -9 9 -20 -13 -22 29 -2 46 12 9 21 21 21 27 0 6 10 11 22 11 20 0 20 1
4 13 -11 8 -15 19 -10 30 8 22 23 22 41 0 12 -16 13 -16 8 8 -6 22 0 28 44 52
43 24 91 72 91 91 0 16 -26 3 -35 -16z"/>
<path d="M1208 1956 c-38 -9 -38 -10 -38 -61 0 -53 12 -75 42 -75 26 0 39 34
36 93 l-3 52 -37 -9z m25 -76 c-9 -49 -11 -52 -33 -40 -15 8 -20 21 -20 55 0
38 3 44 23 47 25 3 37 -21 30 -62z"/>
<path d="M2300 1926 c-91 -24 -214 -55 -273 -71 -60 -15 -118 -37 -130 -47
l-22 -20 26 15 c26 16 198 61 288 76 57 10 126 27 213 53 77 23 98 16 98 -33
0 -29 -19 -54 -48 -63 -51 -16 -535 -136 -536 -134 -30 49 -45 63 -83 80 -55
24 -117 19 -170 -13 -37 -23 -83 -84 -83 -110 0 -22 -301 -100 -308 -80 -9 26
-68 84 -99 97 -18 8 -45 14 -60 14 -23 0 -31 6 -40 30 -7 20 -24 35 -47 45
-33 14 -44 13 -131 -7 -113 -25 -151 -46 -171 -93 -15 -36 -18 -136 -5 -169 7
-18 8 -18 14 5 4 13 7 49 7 79 0 91 49 130 204 160 l58 12 38 -39 c23 -22 60
-46 92 -57 36 -12 67 -33 95 -63 41 -44 43 -45 95 -40 29 2 78 11 108 19 30 9
72 19 92 22 21 4 51 18 68 32 16 14 31 22 31 17 1 -4 2 -38 3 -75 1 -56 -2
-68 -14 -68 -9 0 -21 5 -27 11 -7 7 -39 10 -85 7 -97 -5 -180 -43 -245 -111
-46 -48 -48 -50 -51 -27 -2 14 -10 32 -18 41 -13 14 -12 21 4 57 31 70 10 128
-59 156 -33 14 -39 14 -73 -4 -34 -17 -38 -17 -42 -2 -17 58 -28 67 -79 65
-77 -2 -114 -13 -135 -41 -18 -22 -20 -40 -20 -198 0 -103 -4 -175 -10 -179
-9 -5 -91 115 -130 190 -26 50 -56 61 -131 44 -44 -9 -73 -22 -92 -41 -27 -27
-28 -32 -27 -110 1 -46 2 -112 2 -148 2 -437 4 -527 16 -547 15 -27 18 -28
104 -7 105 26 106 28 110 231 2 95 7 175 10 178 3 3 20 -18 39 -47 86 -138
157 -244 172 -256 23 -20 102 -5 138 25 23 20 32 23 44 13 8 -6 18 -10 22 -7
4 3 25 8 46 11 78 12 96 33 105 120 l7 66 50 -40 c58 -46 111 -65 175 -61 71
4 114 18 163 56 40 31 46 33 58 19 21 -25 126 -12 157 19 25 26 30 41 31 103
1 24 9 51 19 64 l18 22 75 -75 c66 -66 74 -77 62 -92 -13 -19 -21 -16 -63 24
-24 23 -25 -7 0 -34 17 -18 20 -30 15 -58 -4 -19 -2 -44 4 -54 8 -17 5 -25
-18 -47 -21 -20 -56 -34 -146 -56 l-118 -29 -42 37 c-45 39 -48 52 -12 52 38
1 202 46 229 64 30 20 38 35 48 93 8 50 -5 47 -26 -7 -13 -31 -64 -91 -64 -75
0 3 -8 2 -17 -4 -10 -5 -36 -11 -58 -14 -22 -4 -67 -15 -100 -26 -166 -53
-260 -60 -329 -23 -43 23 -57 22 -36 -3 39 -47 132 -60 243 -35 l58 13 36 -37
c20 -20 34 -38 32 -39 -2 -2 -67 -18 -144 -36 -77 -18 -161 -38 -187 -45 l-46
-13 -39 39 -40 39 34 34 c20 20 33 43 33 59 0 33 -18 34 -26 2 -7 -31 -48 -69
-77 -73 -12 -2 -84 -19 -159 -38 -76 -19 -144 -35 -151 -35 -8 0 -28 22 -45
48 -38 59 -89 118 -96 112 -6 -7 50 -98 81 -132 21 -21 24 -32 18 -60 -10 -48
-48 -102 -90 -128 -81 -50 -223 -66 -265 -30 -13 11 -25 20 -28 20 -8 0 19
-29 117 -129 86 -89 112 -102 42 -21 -17 19 -31 38 -31 42 0 4 -9 16 -21 26
l-20 20 38 6 c115 21 147 32 188 68 l42 37 38 -40 c22 -21 45 -39 52 -39 7 0
61 12 119 26 77 19 109 23 117 15 16 -16 27 -14 21 4 -4 9 -19 15 -36 15 -58
0 -6 25 95 45 20 4 23 -15 5 -33 -9 -9 -8 -16 5 -29 16 -16 17 -16 17 8 0 48
18 56 234 109 257 63 274 64 295 28 14 -25 14 -29 -5 -55 -17 -24 -39 -33
-140 -58 -156 -40 -159 -41 -172 -70 -13 -28 0 -34 23 -12 7 8 43 22 80 32 53
14 72 15 86 7 10 -7 26 -12 35 -12 13 0 14 3 4 15 -10 12 -9 16 6 21 40 13 89
38 102 51 16 16 36 18 27 2 -4 -6 2 -17 14 -25 12 -9 18 -20 15 -26 -4 -7 -2
-8 5 -4 6 4 25 -3 43 -15 26 -19 30 -20 25 -6 -5 13 -1 17 19 17 25 0 84 50
84 71 0 17 -19 9 -25 -11 -9 -27 -61 -53 -91 -46 -41 11 -64 42 -64 86 0 40
26 80 51 80 6 0 9 6 6 14 -4 10 16 19 80 34 l86 20 36 -25 c33 -23 43 -25 116
-20 126 7 209 57 270 162 30 50 86 218 164 490 l60 209 -55 63 c-31 35 -67 66
-81 69 -34 9 -167 -23 -186 -44 -9 -9 -19 -29 -22 -45 l-7 -27 -44 40 c-35 32
-51 40 -81 39 -35 0 -36 -1 -15 -11 36 -18 20 -32 -39 -34 -66 -2 -166 -29
-194 -52 -11 -9 -37 -38 -59 -64 -21 -26 -42 -45 -47 -42 -5 3 -9 47 -9 97 0
51 -3 102 -6 114 -9 35 -50 45 -116 29 -54 -12 -56 -12 -45 5 11 17 51 32 87
33 40 0 79 -16 115 -48 22 -20 48 -36 58 -36 9 0 65 11 123 25 124 29 131 30
114 10 -17 -20 -19 -21 183 29 202 49 227 63 227 127 0 50 -33 88 -80 94 -21
2 -100 -13 -200 -39z m-488 -396 l3 -164 82 105 83 105 77 18 c43 10 86 23 96
28 35 18 29 0 -21 -64 -67 -87 -154 -218 -150 -228 2 -5 51 -60 110 -123 l107
-114 -77 -17 c-42 -10 -81 -19 -87 -21 -5 -2 -41 34 -80 80 -38 46 -73 84 -77
84 -4 1 -21 -19 -38 -43 -25 -37 -30 -54 -30 -104 0 -68 -5 -74 -72 -91 -86
-20 -78 -52 -78 332 0 188 4 348 8 354 9 15 124 43 134 34 4 -4 9 -80 10 -171z
m763 133 c-3 -20 -27 -106 -51 -192 -120 -418 -148 -485 -230 -560 -54 -51
-99 -71 -154 -71 -79 0 -127 44 -116 106 11 56 83 85 120 48 15 -14 19 -13 44
13 30 29 76 104 86 138 5 18 1 20 -37 20 -51 0 -85 20 -124 72 -24 31 -28 47
-32 114 l-3 78 51 73 c27 40 64 89 80 108 l30 35 1 -151 c0 -165 6 -182 55
-170 26 7 22 -4 85 216 19 63 35 116 36 118 3 5 128 40 148 41 16 1 17 -4 11
-36z m-1603 -420 c-1 -241 -6 -440 -10 -444 -4 -3 -27 -11 -52 -17 -34 -9 -48
-8 -56 1 -6 7 -64 98 -129 202 -65 105 -121 194 -125 198 -4 5 -5 -96 -2 -225
4 -208 3 -235 -12 -247 -13 -11 -116 -39 -149 -41 -4 0 -6 176 -5 392 l3 392
70 18 c39 9 73 18 76 18 5 0 145 -220 218 -342 15 -25 16 -9 16 229 l0 256 75
22 c41 13 77 23 80 24 3 1 4 -196 2 -436z m161 356 c49 -22 61 -86 22 -124
-33 -34 -78 -33 -110 1 -39 42 -30 93 20 122 25 14 38 15 68 1z m1168 1 c13
-8 25 -7 40 1 20 10 21 9 14 -23 -4 -18 -16 -58 -26 -88 -10 -30 -19 -62 -19
-71 0 -9 -9 -24 -20 -34 -20 -18 -20 -17 -20 103 0 67 3 122 6 122 3 0 14 -5
25 -10z m328 -9 c8 -13 6 -33 -4 -67 -13 -47 -52 -192 -60 -224 -15 -63 -50
-180 -60 -200 -7 -14 -16 -41 -20 -60 -11 -52 -54 -140 -90 -185 -73 -91 -234
-128 -320 -75 -28 18 -43 20 -82 14 l-47 -7 28 34 c31 36 40 37 69 11 27 -24
139 -22 192 3 55 27 135 109 167 175 25 50 69 181 113 335 25 88 62 206 74
238 12 32 26 35 40 8z m-1054 -115 c42 -18 60 -52 51 -100 -8 -43 -51 -80 -81
-71 -48 16 -81 15 -115 -3 -51 -28 -80 -75 -80 -133 0 -41 4 -51 31 -73 45
-38 92 -33 146 16 27 25 61 20 86 -14 18 -24 19 -32 9 -67 -16 -51 -59 -87
-129 -107 -115 -33 -216 8 -268 111 -26 50 -30 70 -30 134 1 56 6 89 22 123
64 141 242 232 358 184z m-539 -37 c3 -6 1 -16 -5 -22 -9 -9 -14 -8 -21 3 -5
8 -10 18 -10 23 0 11 28 8 36 -4z m134 -303 c0 -207 -3 -276 -12 -284 -11 -8
-116 -42 -132 -42 -11 0 -5 560 6 566 14 9 99 32 121 33 16 1 17 -18 17 -273z
m880 204 c0 -31 -16 -41 -26 -15 -5 13 11 45 22 45 2 0 4 -13 4 -30z m-423
-125 l3 -67 -43 6 c-37 6 -48 3 -82 -23 -45 -34 -71 -38 -102 -16 -48 34 -27
121 36 152 26 13 58 18 111 17 l75 -1 2 -68z m193 -485 c0 -11 -7 -23 -15 -26
-8 -4 -12 -10 -9 -15 9 -15 -33 -10 -46 6 -18 21 -6 43 27 48 15 2 31 5 36 6
4 0 7 -8 7 -19z m-588 -81 c-13 -11 -220 -59 -257 -59 -41 0 -81 18 -109 49
-19 21 -19 21 10 22 16 0 88 15 159 33 l130 33 37 -36 c21 -19 35 -38 30 -42z
m-361 -49 c19 -16 48 -32 64 -35 28 -6 64 -12 74 -14 3 -1 0 -6 -5 -11 -6 -6
-43 -17 -83 -24 -40 -8 -70 -11 -67 -8 3 3 -6 15 -19 28 -14 13 -25 27 -25 33
0 13 18 61 23 61 3 0 20 -13 38 -30z"/>
<path d="M1698 1405 c-3 -223 2 -285 17 -222 8 33 1 467 -7 467 -4 0 -9 -110
-10 -245z"/>
<path d="M1940 1471 c-39 -49 -85 -102 -102 -116 -30 -25 -30 -27 -8 -23 21 3
70 41 70 53 0 6 29 41 56 69 12 11 30 37 40 56 11 19 24 38 29 42 6 5 5 8 -2
8 -7 0 -44 -40 -83 -89z"/>
<path d="M1813 1260 c0 -36 2 -50 4 -32 2 17 2 47 0 65 -2 17 -4 3 -4 -33z"/>
<path d="M2446 1619 c-42 -121 -71 -229 -57 -213 13 16 74 214 68 221 -4 3 -9
0 -11 -8z"/>
<path d="M2403 1384 c-17 -7 -39 -27 -49 -43 -10 -16 -27 -34 -38 -40 l-21
-10 22 0 c13 -1 32 12 47 32 34 42 37 45 61 62 25 18 19 17 -22 -1z"/>
<path d="M2065 956 c-11 -17 -13 -30 -6 -47 9 -23 9 -23 16 -4 3 11 12 32 20
48 12 23 12 27 0 27 -8 0 -21 -11 -30 -24z"/>
<path d="M890 1606 c-27 -10 -36 -19 -38 -40 -2 -18 0 -26 7 -21 6 3 11 13 11
21 0 8 6 14 13 14 6 0 26 9 42 20 34 22 18 25 -35 6z"/>
<path d="M875 1497 l-30 -12 0 -143 c0 -78 3 -142 7 -142 14 0 19 42 16 154
-2 106 0 117 17 130 11 7 29 16 40 19 20 5 20 5 0 5 -11 0 -33 -5 -50 -11z"/>
<path d="M508 1426 l-37 -9 -3 -251 c-4 -326 0 -468 12 -461 6 3 10 55 10 115
0 108 0 110 32 147 l32 38 -31 -29 -32 -28 0 160 c0 88 -1 164 -2 168 -1 5 -1
32 0 61 1 43 5 53 22 58 15 5 26 -1 43 -20 26 -31 59 -30 64 0 4 19 3 19 -10
1 -14 -17 -16 -16 -39 21 -23 38 -25 39 -61 29z"/>
<path d="M1429 1437 c-111 -46 -185 -136 -195 -238 -6 -61 9 -50 21 16 3 21
15 56 26 76 23 47 126 129 160 129 6 0 22 9 36 20 33 26 21 25 -48 -3z"/>
<path d="M1059 1313 c-2 -34 0 -58 4 -54 14 14 18 66 8 92 -7 20 -9 13 -12
-38z"/>
<path d="M1415 1931 c-38 -12 -50 -21 -50 -36 0 -15 8 -21 31 -23 62 -6 114
33 83 63 -12 10 -23 10 -64 -4z m55 -16 c0 -16 -38 -35 -71 -35 -36 0 -18 34
21 41 19 4 38 7 43 8 4 0 7 -6 7 -14z"/>
<path d="M1054 1846 c16 -21 37 -59 48 -85 l19 -46 -7 40 c-6 42 -27 78 -65
110 -20 17 -19 14 5 -19z"/>
<path d="M277 1822 c-21 -23 -21 -41 -1 -70 21 -31 63 -26 83 9 13 24 13 29
-2 53 -21 31 -56 34 -80 8z m63 -38 c0 -19 -5 -24 -25 -24 -20 0 -25 5 -25 24
0 15 7 26 18 29 25 5 32 -1 32 -29z"/>
<path d="M763 1809 c-35 -13 -66 -35 -92 -65 -37 -42 -61 -98 -47 -111 3 -4 6
1 6 11 0 25 35 88 63 114 14 13 54 34 89 47 34 13 56 24 48 24 -8 0 -38 -9
-67 -20z"/>
<path d="M284 1616 c-9 -24 4 -48 23 -44 24 4 24 52 0 56 -9 2 -20 -4 -23 -12z"/>
<path d="M495 1570 c-16 -4 -91 -25 -165 -45 -79 -21 -143 -45 -155 -56 -18
-18 -18 -20 -2 -36 16 -17 21 -17 80 -1 34 9 70 20 80 23 16 7 17 4 10 -21 -4
-16 -8 -210 -8 -431 l0 -401 24 -26 c30 -32 66 -33 173 -6 102 25 132 42 152
84 18 38 22 151 6 161 -5 3 -11 -4 -12 -17 -1 -13 -3 -32 -4 -43 -1 -11 -2
-32 -3 -47 -2 -48 -43 -84 -118 -103 -110 -27 -136 -28 -161 -5 -12 12 -22 24
-22 28 -4 113 -3 552 0 552 11 0 10 59 0 65 -6 4 -8 11 -4 16 3 5 7 49 9 97 2
63 -1 93 -11 109 -17 26 -15 28 61 43 33 7 69 17 80 23 11 5 39 9 64 8 35 -1
54 -9 88 -37 53 -44 60 -22 10 33 -30 32 -40 36 -88 39 -30 2 -67 -1 -84 -6z"/>
<path d="M2708 1531 c4 -11 18 -32 31 -47 24 -27 24 -41 6 -134 -2 -14 3 -1
12 28 9 28 20 52 24 52 5 0 9 -4 9 -8 0 -11 165 -182 174 -182 4 0 -2 12 -14
28 -33 41 -242 282 -246 282 -2 0 0 -9 4 -19z"/>
<path d="M198 1294 c-34 -18 -58 -62 -58 -105 0 -22 10 -41 34 -65 40 -40 76
-46 75 -11 0 12 -3 16 -6 10 -14 -36 -73 12 -80 64 -4 29 0 45 16 65 22 28 81
55 81 37 0 -6 5 -7 10 -4 6 3 10 10 10 16 0 14 -52 10 -82 -7z"/>
<path d="M1943 699 c15 -11 27 -26 27 -33 0 -7 16 -27 35 -46 l35 -34 -6 31
c-6 30 -5 32 32 38 22 4 44 8 49 9 6 2 27 -5 48 -16 21 -11 44 -17 50 -14 8 3
7 5 -2 5 -8 1 -27 13 -42 27 l-28 26 -77 -17 c-69 -15 -78 -15 -86 -2 -13 25
-38 47 -51 47 -7 0 0 -10 16 -21z"/>
<path d="M2259 464 c-57 -59 -174 -144 -261 -190 -46 -24 -79 -44 -75 -44 14
0 131 62 187 100 52 36 201 169 189 170 -3 0 -21 -16 -40 -36z"/>
<path d="M2041 434 c-93 -68 -212 -128 -316 -156 -68 -19 -105 -22 -250 -22
-157 0 -177 2 -260 28 -49 15 -127 45 -173 66 l-84 39 -66 -19 c-37 -10 -58
-19 -47 -19 11 -1 42 6 68 14 48 14 48 14 125 -24 150 -74 272 -103 447 -103
227 0 434 76 605 222 55 46 32 35 -49 -26z"/>
<path d="M1437 395 c-8 -18 -58 -20 -75 -3 -8 8 -12 8 -12 1 0 -14 29 -27 55
-24 22 3 52 27 43 36 -3 3 -8 -1 -11 -10z"/>
<path d="M826 264 c-19 -19 -20 -28 -3 -43 10 -8 25 -7 58 4 l44 15 -39 -6
c-45 -6 -65 12 -38 33 10 7 12 13 5 13 -6 0 -19 -7 -27 -16z"/>
<path d="M1845 209 c-27 -10 -41 -18 -30 -18 11 0 38 8 60 18 50 24 36 24 -30
0z"/>
<path d="M1498 143 c23 -2 59 -2 80 0 20 2 1 4 -43 4 -44 0 -61 -2 -37 -4z"/>
</g>
</svg>
